<svg id="visual" viewBox="0 0 900 600" width="900" height="600" xmlns="http://www.w3.org/2000/svg" xmlns:xlink="http://www.w3.org/1999/xlink" version="1.1"><g stroke-width="1" stroke-linejoin="bevel"><path d="M407 316L288 328L375 383Z" fill="#297ea6" stroke="#297ea6"></path><path d="M288 328L271 425L375 383Z" fill="#205a7a" stroke="#205a7a"></path><path d="M407 316L375 206L288 328Z" fill="#277297" stroke="#277297"></path><path d="M375 206L305 199L288 328Z" fill="#00101c" stroke="#00101c"></path><path d="M288 328L173 366L271 425Z" fill="#297ea6" stroke="#297ea6"></path><path d="M507 378L503 323L407 316Z" fill="#1d4e6b" stroke="#1d4e6b"></path><path d="M407 316L503 237L375 206Z" fill="#081a28" stroke="#081a28"></path><path d="M271 425L378 485L375 383Z" fill="#246688" stroke="#246688"></path><path d="M375 383L507 378L407 316Z" fill="#15384f" stroke="#15384f"></path><path d="M221 214L190 305L288 328Z" fill="#205a7a" stroke="#205a7a"></path><path d="M471 505L507 378L375 383Z" fill="#15384f" stroke="#15384f"></path><path d="M305 199L221 214L288 328Z" fill="#19435d" stroke="#19435d"></path><path d="M271 425L330 503L378 485Z" fill="#112e42" stroke="#112e42"></path><path d="M190 305L173 366L288 328Z" fill="#15384f" stroke="#15384f"></path><path d="M271 425L213 485L330 503Z" fill="#112e42" stroke="#112e42"></path><path d="M574 319L503 237L503 323Z" fill="#19435d" stroke="#19435d"></path><path d="M503 323L503 237L407 316Z" fill="#15384f" stroke="#15384f"></path><path d="M493 130L389 136L375 206Z" fill="#205a7a" stroke="#205a7a"></path><path d="M375 206L389 136L305 199Z" fill="#246688" stroke="#246688"></path><path d="M305 199L178 130L221 214Z" fill="#246688" stroke="#246688"></path><path d="M173 366L213 485L271 425Z" fill="#277297" stroke="#277297"></path><path d="M378 485L471 505L375 383Z" fill="#00101c" stroke="#00101c"></path><path d="M380 600L471 505L378 485Z" fill="#205a7a" stroke="#205a7a"></path><path d="M190 305L131 334L173 366Z" fill="#19435d" stroke="#19435d"></path><path d="M173 366L98 432L213 485Z" fill="#112e42" stroke="#112e42"></path><path d="M102 171L131 334L190 305Z" fill="#112e42" stroke="#112e42"></path><path d="M577 437L574 319L507 378Z" fill="#00101c" stroke="#00101c"></path><path d="M507 378L574 319L503 323Z" fill="#246688" stroke="#246688"></path><path d="M625 209L493 130L503 237Z" fill="#0c2435" stroke="#0c2435"></path><path d="M503 237L493 130L375 206Z" fill="#19435d" stroke="#19435d"></path><path d="M427 0L336 80L389 136Z" fill="#1d4e6b" stroke="#1d4e6b"></path><path d="M389 136L336 80L305 199Z" fill="#081a28" stroke="#081a28"></path><path d="M471 505L577 437L507 378Z" fill="#297ea6" stroke="#297ea6"></path><path d="M336 80L178 130L305 199Z" fill="#277297" stroke="#277297"></path><path d="M221 214L102 171L190 305Z" fill="#1d4e6b" stroke="#1d4e6b"></path><path d="M0 411L98 432L131 334Z" fill="#00101c" stroke="#00101c"></path><path d="M131 334L98 432L173 366Z" fill="#081a28" stroke="#081a28"></path><path d="M316 600L380 600L330 503Z" fill="#19435d" stroke="#19435d"></path><path d="M330 503L380 600L378 485Z" fill="#297ea6" stroke="#297ea6"></path><path d="M471 505L601 495L577 437Z" fill="#297ea6" stroke="#297ea6"></path><path d="M316 600L330 503L213 485Z" fill="#205a7a" stroke="#205a7a"></path><path d="M209 600L316 600L213 485Z" fill="#277297" stroke="#277297"></path><path d="M178 130L102 171L221 214Z" fill="#205a7a" stroke="#205a7a"></path><path d="M574 319L625 209L503 237Z" fill="#15384f" stroke="#15384f"></path><path d="M681 306L625 209L574 319Z" fill="#205a7a" stroke="#205a7a"></path><path d="M506 600L601 495L471 505Z" fill="#205a7a" stroke="#205a7a"></path><path d="M577 437L661 401L574 319Z" fill="#297ea6" stroke="#297ea6"></path><path d="M62 521L209 600L213 485Z" fill="#0c2435" stroke="#0c2435"></path><path d="M380 600L506 600L471 505Z" fill="#0c2435" stroke="#0c2435"></path><path d="M601 495L661 401L577 437Z" fill="#15384f" stroke="#15384f"></path><path d="M661 401L681 306L574 319Z" fill="#277297" stroke="#277297"></path><path d="M336 80L291 0L178 130Z" fill="#0c2435" stroke="#0c2435"></path><path d="M178 130L82 63L102 171Z" fill="#246688" stroke="#246688"></path><path d="M427 0L291 0L336 80Z" fill="#112e42" stroke="#112e42"></path><path d="M427 0L389 136L493 130Z" fill="#297ea6" stroke="#297ea6"></path><path d="M464 0L427 0L493 130Z" fill="#246688" stroke="#246688"></path><path d="M0 483L62 521L98 432Z" fill="#15384f" stroke="#15384f"></path><path d="M98 432L62 521L213 485Z" fill="#00101c" stroke="#00101c"></path><path d="M0 220L0 312L131 334Z" fill="#0c2435" stroke="#0c2435"></path><path d="M582 0L464 0L493 130Z" fill="#15384f" stroke="#15384f"></path><path d="M0 312L0 411L131 334Z" fill="#246688" stroke="#246688"></path><path d="M102 171L0 220L131 334Z" fill="#15384f" stroke="#15384f"></path><path d="M0 92L0 220L102 171Z" fill="#081a28" stroke="#081a28"></path><path d="M696 138L610 73L625 209Z" fill="#112e42" stroke="#112e42"></path><path d="M625 209L610 73L493 130Z" fill="#112e42" stroke="#112e42"></path><path d="M681 306L693 184L625 209Z" fill="#277297" stroke="#277297"></path><path d="M291 0L166 0L178 130Z" fill="#112e42" stroke="#112e42"></path><path d="M166 0L82 63L178 130Z" fill="#112e42" stroke="#112e42"></path><path d="M0 411L0 483L98 432Z" fill="#081a28" stroke="#081a28"></path><path d="M506 600L624 600L601 495Z" fill="#19435d" stroke="#19435d"></path><path d="M601 495L719 517L661 401Z" fill="#19435d" stroke="#19435d"></path><path d="M661 401L767 411L681 306Z" fill="#1d4e6b" stroke="#1d4e6b"></path><path d="M62 521L60 600L209 600Z" fill="#246688" stroke="#246688"></path><path d="M0 600L60 600L62 521Z" fill="#246688" stroke="#246688"></path><path d="M166 0L127 0L82 63Z" fill="#297ea6" stroke="#297ea6"></path><path d="M693 184L696 138L625 209Z" fill="#205a7a" stroke="#205a7a"></path><path d="M704 0L582 0L610 73Z" fill="#205a7a" stroke="#205a7a"></path><path d="M610 73L582 0L493 130Z" fill="#205a7a" stroke="#205a7a"></path><path d="M682 600L719 517L601 495Z" fill="#297ea6" stroke="#297ea6"></path><path d="M681 306L772 177L693 184Z" fill="#205a7a" stroke="#205a7a"></path><path d="M693 184L772 177L696 138Z" fill="#277297" stroke="#277297"></path><path d="M82 63L0 92L102 171Z" fill="#1d4e6b" stroke="#1d4e6b"></path><path d="M0 0L0 92L82 63Z" fill="#081a28" stroke="#081a28"></path><path d="M719 517L767 411L661 401Z" fill="#15384f" stroke="#15384f"></path><path d="M624 600L682 600L601 495Z" fill="#246688" stroke="#246688"></path><path d="M719 517L819 531L767 411Z" fill="#297ea6" stroke="#297ea6"></path><path d="M0 483L0 600L62 521Z" fill="#112e42" stroke="#112e42"></path><path d="M804 304L772 177L681 306Z" fill="#297ea6" stroke="#297ea6"></path><path d="M696 138L704 0L610 73Z" fill="#297ea6" stroke="#297ea6"></path><path d="M767 411L804 304L681 306Z" fill="#1d4e6b" stroke="#1d4e6b"></path><path d="M127 0L0 0L82 63Z" fill="#15384f" stroke="#15384f"></path><path d="M793 67L704 0L696 138Z" fill="#15384f" stroke="#15384f"></path><path d="M788 600L819 531L719 517Z" fill="#277297" stroke="#277297"></path><path d="M900 380L900 301L804 304Z" fill="#297ea6" stroke="#297ea6"></path><path d="M900 74L793 67L772 177Z" fill="#1d4e6b" stroke="#1d4e6b"></path><path d="M772 177L793 67L696 138Z" fill="#112e42" stroke="#112e42"></path><path d="M900 226L772 177L804 304Z" fill="#297ea6" stroke="#297ea6"></path><path d="M682 600L788 600L719 517Z" fill="#277297" stroke="#277297"></path><path d="M793 67L785 0L704 0Z" fill="#081a28" stroke="#081a28"></path><path d="M900 380L804 304L767 411Z" fill="#246688" stroke="#246688"></path><path d="M793 67L900 0L785 0Z" fill="#081a28" stroke="#081a28"></path><path d="M900 505L900 380L767 411Z" fill="#246688" stroke="#246688"></path><path d="M900 505L767 411L819 531Z" fill="#15384f" stroke="#15384f"></path><path d="M900 301L900 226L804 304Z" fill="#297ea6" stroke="#297ea6"></path><path d="M900 600L900 505L819 531Z" fill="#1d4e6b" stroke="#1d4e6b"></path><path d="M900 226L900 74L772 177Z" fill="#19435d" stroke="#19435d"></path><path d="M788 600L900 600L819 531Z" fill="#1d4e6b" stroke="#1d4e6b"></path><path d="M900 74L900 0L793 67Z" fill="#297ea6" stroke="#297ea6"></path></g></svg>